<?xml version="1.0" encoding="UTF-8" standalone="no"?>
<!DOCTYPE svg PUBLIC "-//W3C//DTD SVG 1.1//EN" "http://www.w3.org/Graphics/SVG/1.1/DTD/svg11.dtd">
<svg width="100%" height="100%" viewBox="0 0 439 222" version="1.1" xmlns="http://www.w3.org/2000/svg" xmlns:xlink="http://www.w3.org/1999/xlink" xml:space="preserve" xmlns:serif="http://www.serif.com/" style="fill-rule:evenodd;clip-rule:evenodd;stroke-linejoin:round;stroke-miterlimit:2;">
    <g transform="matrix(1,0,0,1,-202.418,-268.309)">
        <g transform="matrix(0.99867,0,0,1.00126,0.25006,-0.339388)">
            <path d="M202.437,489.023L452.103,488.575L322.69,268.411L202.437,489.023Z" style="fill:url(#_Linear1);"/>
        </g>
        <g transform="matrix(0.911643,0,0,0.917504,39.5576,41.2574)">
            <path d="M473.67,247.466L473.913,488.122C473.913,488.122 557.264,488.748 589.317,488.799C625.482,488.856 659.355,475.061 659.303,429.629C659.244,378.629 613.247,368.328 613.247,368.328C613.247,368.328 659.238,358.922 659.207,307.796C659.187,275.419 635.093,247.993 609.238,247.929C570.2,247.834 473.67,247.466 473.67,247.466Z" style="fill:url(#_Linear2);"/>
        </g>
    </g>
    <defs>
        <linearGradient id="_Linear1" x1="0" y1="0" x2="1" y2="0" gradientUnits="userSpaceOnUse" gradientTransform="matrix(-184.956,154.036,-154.436,-184.476,375.298,350.682)"><stop offset="0" style="stop-color:rgb(203,77,192);stop-opacity:1"/><stop offset="1" style="stop-color:rgb(0,248,245);stop-opacity:1"/></linearGradient>
        <linearGradient id="_Linear2" x1="0" y1="0" x2="1" y2="0" gradientUnits="userSpaceOnUse" gradientTransform="matrix(230.035,-137.455,138.338,228.565,443.33,491.957)"><stop offset="0" style="stop-color:rgb(0,248,245);stop-opacity:1"/><stop offset="1" style="stop-color:rgb(203,77,192);stop-opacity:1"/></linearGradient>
    </defs>
</svg>
